<svg width="270" height="270" viewBox="0 0 270 270" fill="none" xmlns="http://www.w3.org/2000/svg">
<rect x="0.5" y="0.5" width="269" height="269" rx="42.0197" fill="url(#paint0_radial_1418_1306)"/>
<rect x="0.5" y="0.5" width="269" height="269" rx="42.0197" fill="url(#paint1_radial_1418_1306)" fill-opacity="0.79"/>
<rect x="0.5" y="0.5" width="269" height="269" rx="42.0197" fill="url(#paint2_radial_1418_1306)" fill-opacity="0.7"/>
<rect x="0.5" y="0.5" width="269" height="269" rx="42.0197" stroke="#EBE9E9"/>
<path fill-rule="evenodd" clip-rule="evenodd" d="M86.9697 191.339H188.056H192.024C192.832 191.339 193.639 191.253 194.429 191.082C224.335 184.623 230.951 144.596 204.738 128.713L203.176 127.766C205.045 104.326 182.929 86.3352 160.592 93.1252L152.633 95.5448L141.556 87.3389C111.628 65.1665 69.6184 88.2183 71.8499 125.589C39.9098 136.196 41.7861 182.361 74.4799 190.299L75.8661 190.636C77.7898 191.103 79.7616 191.339 81.7402 191.339H86.9697ZM100.536 129.843C100.208 128.355 98.7453 127.417 97.2693 127.748C95.7933 128.078 94.8627 129.552 95.1907 131.04C95.5392 132.621 96.694 135.826 99.0482 138.463C97.634 140.765 96.468 143.876 95.8756 148.056C94.7125 156.261 99.3282 161.186 102.613 161.186C106.068 161.186 108.004 160.733 110.25 155.753C110.557 155.071 110.782 154.307 111.008 153.537C111.327 152.452 111.649 151.356 112.21 150.466C115.021 146.008 118.189 139.559 115.613 135.108C114.518 133.216 111.233 131.738 107.4 132.348C106.122 132.552 104.45 133.118 102.764 134.35C101.48 132.734 100.747 130.802 100.536 129.843ZM139.157 129.843C138.829 128.355 137.366 127.417 135.89 127.748C134.414 128.078 133.484 129.552 133.812 131.04C134.16 132.621 135.315 135.826 137.669 138.463C136.255 140.765 135.089 143.876 134.497 148.056C133.333 156.261 137.949 161.186 141.234 161.186C144.689 161.186 146.625 160.733 148.871 155.753C149.178 155.071 149.402 154.307 149.629 153.537C149.948 152.452 150.27 151.356 150.831 150.466C153.642 146.008 156.81 139.559 154.234 135.108C153.139 133.216 149.854 131.738 146.021 132.348C144.743 132.552 143.071 133.118 141.385 134.35C140.101 132.734 139.368 130.802 139.157 129.843Z" fill="white"/>
<defs>
<radialGradient id="paint0_radial_1418_1306" cx="0" cy="0" r="1" gradientUnits="userSpaceOnUse" gradientTransform="translate(0 270) rotate(-49.8396) scale(219.978 346.226)">
<stop stop-color="#FFB9CA"/>
<stop offset="1" stop-color="#FFDEBF"/>
</radialGradient>
<radialGradient id="paint1_radial_1418_1306" cx="0" cy="0" r="1" gradientUnits="userSpaceOnUse" gradientTransform="translate(270 270) rotate(-136.14) scale(207.472 312.344)">
<stop stop-color="white"/>
<stop offset="1" stop-color="white" stop-opacity="0"/>
</radialGradient>
<radialGradient id="paint2_radial_1418_1306" cx="0" cy="0" r="1" gradientUnits="userSpaceOnUse" gradientTransform="rotate(49.7998) scale(135.667 221.337)">
<stop stop-color="white"/>
<stop offset="1" stop-color="white" stop-opacity="0"/>
</radialGradient>
</defs>
</svg>
