<svg width="74" height="74" viewBox="0 0 74 74" fill="none" xmlns="http://www.w3.org/2000/svg">
<rect x="0.5" y="0.5" width="73" height="73" rx="36.5" fill="white"/>
<rect x="0.5" y="0.5" width="73" height="73" rx="36.5" stroke="#E5E5F2"/>
<g clip-path="url(#clip0_1420_1078)">
<path fill-rule="evenodd" clip-rule="evenodd" d="M37 17C25.95 17 17 25.95 17 37C17 45.85 22.725 53.325 30.675 55.975C31.675 56.15 32.05 55.55 32.05 55.025C32.05 54.55 32.025 52.975 32.025 51.3C27 52.225 25.7 50.075 25.3 48.95C25.075 48.375 24.1 46.6 23.25 46.125C22.55 45.75 21.55 44.825 23.225 44.8C24.8 44.775 25.925 46.25 26.3 46.85C28.1 49.875 30.975 49.025 32.125 48.5C32.3 47.2 32.825 46.325 33.4 45.825C28.95 45.325 24.3 43.6 24.3 35.95C24.3 33.775 25.075 31.975 26.35 30.575C26.15 30.075 25.45 28.025 26.55 25.275C26.55 25.275 28.225 24.75 32.05 27.325C33.65 26.875 35.35 26.65 37.05 26.65C38.75 26.65 40.45 26.875 42.05 27.325C45.875 24.725 47.55 25.275 47.55 25.275C48.65 28.025 47.95 30.075 47.75 30.575C49.025 31.975 49.8 33.75 49.8 35.95C49.8 43.625 45.125 45.325 40.675 45.825C41.4 46.45 42.025 47.65 42.025 49.525C42.025 52.2 42 54.35 42 55.025C42 55.55 42.375 56.175 43.375 55.975C51.275 53.325 57 45.825 57 37C57 25.95 48.05 17 37 17Z" fill="#A2A2B1"/>
</g>
<defs>
<clipPath id="clip0_1420_1078">
<rect width="40" height="40" fill="white" transform="translate(17 17)"/>
</clipPath>
</defs>
</svg>
