<svg width="74" height="74" viewBox="0 0 74 74" fill="none" xmlns="http://www.w3.org/2000/svg">
<rect x="0.5" y="0.5" width="73" height="73" rx="36.5" fill="white"/>
<rect x="0.5" y="0.5" width="73" height="73" rx="36.5" stroke="#E5E5F2"/>
<path fill-rule="evenodd" clip-rule="evenodd" d="M19.75 35.0833C19.75 27.8556 19.75 24.2407 21.9963 21.9963C24.2427 19.7519 27.8556 19.75 35.0833 19.75H38.9167C46.1444 19.75 49.7592 19.75 52.0037 21.9963C54.2481 24.2427 54.25 27.8556 54.25 35.0833V38.9167C54.25 46.1444 54.25 49.7592 52.0037 52.0037C49.7573 54.2481 46.1444 54.25 38.9167 54.25H35.0833C27.8556 54.25 24.2407 54.25 21.9963 52.0037C19.7519 49.7573 19.75 46.1444 19.75 38.9167V35.0833ZM48.5 28.375C48.5 29.1375 48.1971 29.8688 47.6579 30.4079C47.1188 30.9471 46.3875 31.25 45.625 31.25C44.8625 31.25 44.1312 30.9471 43.5921 30.4079C43.0529 29.8688 42.75 29.1375 42.75 28.375C42.75 27.6125 43.0529 26.8812 43.5921 26.3421C44.1312 25.8029 44.8625 25.5 45.625 25.5C46.3875 25.5 47.1188 25.8029 47.6579 26.3421C48.1971 26.8812 48.5 27.6125 48.5 28.375ZM40.8333 38.9167C40.8333 39.9333 40.4295 40.9084 39.7106 41.6272C38.9917 42.3461 38.0167 42.75 37 42.75C35.9833 42.75 35.0083 42.3461 34.2894 41.6272C33.5705 40.9084 33.1667 39.9333 33.1667 38.9167C33.1667 37.9 33.5705 36.925 34.2894 36.2061C35.0083 35.4872 35.9833 35.0833 37 35.0833C38.0167 35.0833 38.9917 35.4872 39.7106 36.2061C40.4295 36.925 40.8333 37.9 40.8333 38.9167ZM44.6667 38.9167C44.6667 40.95 43.8589 42.9 42.4212 44.3378C40.9834 45.7756 39.0333 46.5833 37 46.5833C34.9667 46.5833 33.0166 45.7756 31.5788 44.3378C30.1411 42.9 29.3333 40.95 29.3333 38.9167C29.3333 36.8833 30.1411 34.9333 31.5788 33.4955C33.0166 32.0577 34.9667 31.25 37 31.25C39.0333 31.25 40.9834 32.0577 42.4212 33.4955C43.8589 34.9333 44.6667 36.8833 44.6667 38.9167Z" fill="#A2A2B1"/>
</svg>
