<svg width="14" height="14" viewBox="0 0 14 14" fill="none" xmlns="http://www.w3.org/2000/svg">
<path d="M7.55646 0.991624C7.51931 0.873164 7.44532 0.769649 7.34527 0.696137C7.24522 0.622625 7.12433 0.582951 7.00018 0.582886C6.87603 0.582821 6.75509 0.622368 6.65497 0.695775C6.55484 0.769182 6.48075 0.872619 6.44346 0.99104L5.16946 5.02771L1.16721 5.02479C1.04244 5.0245 0.92086 5.06422 0.820329 5.13813C0.719798 5.21204 0.645615 5.31623 0.608673 5.43541C0.571731 5.5546 0.573977 5.68248 0.615082 5.80029C0.656186 5.9181 0.733983 6.01963 0.837048 6.08996L4.04421 8.28446L2.83846 12.1024C2.80208 12.2189 2.80319 12.344 2.84163 12.4598C2.88007 12.5757 2.9539 12.6766 3.05273 12.7483C3.15156 12.82 3.27039 12.8589 3.39248 12.8595C3.51458 12.8601 3.63378 12.8224 3.7333 12.7516L6.99996 10.4148L10.2631 12.7522C10.3627 12.8235 10.4821 12.8617 10.6046 12.8613C10.727 12.861 10.8462 12.8221 10.9453 12.7502C11.0445 12.6783 11.1185 12.5771 11.1568 12.4608C11.1952 12.3445 11.196 12.2191 11.1591 12.1024L9.95338 8.28446L13.1629 6.08996C13.2659 6.01963 13.3437 5.9181 13.3848 5.80029C13.426 5.68248 13.4282 5.5546 13.3913 5.43541C13.3543 5.31623 13.2801 5.21204 13.1796 5.13813C13.0791 5.06422 12.9575 5.0245 12.8327 5.02479L8.82755 5.02771L7.55646 0.991624Z" fill="#FF9500"/>
</svg>
